<svg width="48" height="50" viewBox="0 0 48 50" fill="none" xmlns="http://www.w3.org/2000/svg">
<g filter="url(#filter0_d_6_260)">
<path d="M24 42C19 42 14.75 40.25 11.25 36.75C7.75 33.25 6 29 6 24C6 19 7.75 14.75 11.25 11.25C14.75 7.75 19 6 24 6C24.4667 6 24.925 6.01667 25.375 6.05C25.825 6.08333 26.2667 6.13333 26.7 6.2C25.3333 7.16667 24.2417 8.425 23.425 9.975C22.6083 11.525 22.2 13.2 22.2 15C22.2 18 23.25 20.55 25.35 22.65C27.45 24.75 30 25.8 33 25.8C34.8333 25.8 36.5167 25.3917 38.05 24.575C39.5833 23.7583 40.8333 22.6667 41.8 21.3C41.8667 21.7333 41.9167 22.175 41.95 22.625C41.9833 23.075 42 23.5333 42 24C42 29 40.25 33.25 36.75 36.75C33.25 40.25 29 42 24 42ZM24 38C26.9333 38 29.5667 37.1917 31.9 35.575C34.2333 33.9583 35.9333 31.85 37 29.25C36.3333 29.4167 35.6667 29.55 35 29.65C34.3333 29.75 33.6667 29.8 33 29.8C28.9 29.8 25.4083 28.3583 22.525 25.475C19.6417 22.5917 18.2 19.1 18.2 15C18.2 14.3333 18.25 13.6667 18.35 13C18.45 12.3333 18.5833 11.6667 18.75 11C16.15 12.0667 14.0417 13.7667 12.425 16.1C10.8083 18.4333 10 21.0667 10 24C10 27.8667 11.3667 31.1667 14.1 33.9C16.8333 36.6333 20.1333 38 24 38Z" fill="#505254"/>
</g>
<defs>
<filter id="filter0_d_6_260" x="-4" y="0" width="56" height="56" filterUnits="userSpaceOnUse" color-interpolation-filters="sRGB">
<feFlood flood-opacity="0" result="BackgroundImageFix"/>
<feColorMatrix in="SourceAlpha" type="matrix" values="0 0 0 0 0 0 0 0 0 0 0 0 0 0 0 0 0 0 127 0" result="hardAlpha"/>
<feOffset dy="4"/>
<feGaussianBlur stdDeviation="2"/>
<feComposite in2="hardAlpha" operator="out"/>
<feColorMatrix type="matrix" values="0 0 0 0 0 0 0 0 0 0 0 0 0 0 0 0 0 0 0.25 0"/>
<feBlend mode="normal" in2="BackgroundImageFix" result="effect1_dropShadow_6_260"/>
<feBlend mode="normal" in="SourceGraphic" in2="effect1_dropShadow_6_260" result="shape"/>
</filter>
</defs>
</svg>
