<svg width="64" height="64" viewBox="0 0 64 64" fill="none" xmlns="http://www.w3.org/2000/svg">
<g clip-path="url(#clip0_13_39)">
<path d="M58.8786 0.00573965H5.47987C4.79161 -0.0264974 4.10371 0.0772941 3.4556 0.311233C2.8075 0.545171 2.21191 0.904617 1.70288 1.36897C1.19389 1.83337 0.781463 2.3936 0.489269 3.01754C0.197076 3.64153 0.0307993 4.31699 0 5.00528V58.5205C0.0403191 59.9608 0.630625 61.3314 1.64968 62.3501C2.66874 63.3693 4.03927 63.9596 5.47987 64H58.8786C60.279 63.9376 61.5994 63.3289 62.5566 62.3046C63.5137 61.2802 64.0313 59.922 63.9985 58.5205V5.00528C64.0101 4.33534 63.8845 3.67016 63.6297 3.05046C63.3749 2.4308 62.9961 1.86969 62.5166 1.40153C62.0374 0.933415 61.4674 0.568169 60.8418 0.328151C60.2162 0.0881332 59.5482 -0.0215778 58.8786 0.00573965ZM19.9995 53.361H10.6798V24.8436H19.9995V53.361ZM15.5596 20.5239C14.9093 20.5465 14.2613 20.4345 13.6563 20.1947C13.0513 19.955 12.5025 19.5927 12.0442 19.1308C11.586 18.6688 11.2282 18.117 10.9934 17.5101C10.7586 16.9033 10.6518 16.2544 10.6798 15.6043C10.651 14.9472 10.7599 14.2913 10.9995 13.6788C11.2392 13.0662 11.6042 12.5105 12.0712 12.0473C12.5382 11.584 13.0969 11.2236 13.7114 10.9889C14.3259 10.7543 14.9827 10.6507 15.6396 10.6848C16.29 10.6621 16.938 10.7742 17.543 11.0139C18.1479 11.2536 18.6968 11.6159 19.155 12.0779C19.6133 12.5399 19.9711 13.0916 20.2059 13.6985C20.4407 14.3054 20.5475 14.9542 20.5195 15.6043C20.5483 16.2615 20.4394 16.9173 20.1997 17.5299C19.9601 18.1424 19.5951 18.6982 19.1281 19.1613C18.6611 19.6246 18.1024 19.9851 17.4879 20.2197C16.8733 20.4543 16.2165 20.5579 15.5596 20.5239ZM53.3588 53.361H43.999V37.7624C43.999 34.0427 42.679 31.483 39.3591 31.483C38.3279 31.4918 37.3243 31.8193 36.4868 32.4209C35.6488 33.0224 35.0176 33.8684 34.6792 34.8427C34.4192 35.573 34.3104 36.3485 34.3592 37.1225V53.361H25.1594V24.8436H34.3592V28.8432C35.1772 27.3406 36.3944 26.0935 37.8767 25.2391C39.3591 24.3852 41.0487 23.9576 42.759 24.0035C48.7989 24.0035 53.3588 28.0033 53.3588 36.5225V53.361Z" fill="#BBBCBC"/>
</g>
<defs>
<clipPath id="clip0_13_39">
<rect width="64" height="64" fill="white"/>
</clipPath>
</defs>
</svg>
